<svg width="120" height="88" viewBox="0 0 120 88" fill="none" xmlns="http://www.w3.org/2000/svg">
<path d="M8 68V16C5.87827 16 3.84344 16.8429 2.34315 18.3431C0.842855 19.8434 0 21.8783 0 24V80C0 82.1217 0.842855 84.1566 2.34315 85.6569C3.84344 87.1571 5.87827 88 8 88H45.52C38.0274 82.7949 29.1232 80.0036 20 80C16.8174 80 13.7652 78.7357 11.5147 76.4853C9.26429 74.2348 8 71.1826 8 68Z" fill="#741415"/>
<path d="M112 16V68C112 71.1826 110.736 74.2348 108.485 76.4853C106.235 78.7357 103.183 80 100 80C90.8768 80.0036 81.9726 82.7949 74.48 88H112C114.122 88 116.157 87.1571 117.657 85.6569C119.157 84.1566 120 82.1217 120 80V24C120 21.8783 119.157 19.8434 117.657 18.3431C116.157 16.8429 114.122 16 112 16Z" fill="#741415"/>
<path d="M20 0C18.9391 0 17.9217 0.421428 17.1716 1.17157C16.4214 1.92172 16 2.93913 16 4V68C16 69.0609 16.4214 70.0783 17.1716 70.8284C17.9217 71.5786 18.9391 72 20 72C32.0337 72.0125 43.7082 76.1014 53.12 83.6L56 85.92V0.719999C54.7173 0.254309 53.3646 0.0108182 52 0H20Z" fill="#741415"/>
<path d="M104 68V4C104 2.93913 103.579 1.92172 102.828 1.17157C102.078 0.421428 101.061 0 100 0H68C66.6355 0.0108182 65.2827 0.254309 64 0.719999V85.92L66.88 83.6C76.2918 76.1014 87.9663 72.0125 100 72C101.061 72 102.078 71.5786 102.828 70.8284C103.579 70.0783 104 69.0609 104 68Z" fill="#741415"/>
</svg>
