<svg width="16" height="16" viewBox="0 0 16 16" fill="none" xmlns="http://www.w3.org/2000/svg">
<path d="M7.5714 11.1771L1.5714 5.84375C1.43894 5.72696 1.35823 5.56239 1.34698 5.38616C1.33573 5.20993 1.39486 5.03643 1.5114 4.90375C1.62819 4.77129 1.79276 4.69058 1.96899 4.67933C2.14522 4.66808 2.31872 4.72722 2.4514 4.84375L8.0114 9.78374L13.5714 4.84375C13.7052 4.736 13.8754 4.68404 14.0465 4.69872C14.2177 4.7134 14.3766 4.79357 14.4901 4.92253C14.6035 5.05149 14.6629 5.21927 14.6557 5.3909C14.6485 5.56253 14.5753 5.72475 14.4514 5.84375L8.4514 11.1771C8.32974 11.284 8.17334 11.3429 8.0114 11.3429C7.84946 11.3429 7.69306 11.284 7.5714 11.1771Z" fill="#131045"/>
</svg>
