<svg width="17" height="17" viewBox="0 0 17 17" fill="none" xmlns="http://www.w3.org/2000/svg">
<path d="M7.62531 11.2324L1.58166 5.87268C1.44823 5.75532 1.36693 5.58993 1.3556 5.41283C1.34427 5.23572 1.40384 5.06137 1.52122 4.92803C1.63886 4.79492 1.80462 4.71381 1.98214 4.7025C2.15965 4.6912 2.33441 4.75062 2.46806 4.86774L8.06852 9.83218L13.669 4.86774C13.8037 4.75945 13.9752 4.70724 14.1476 4.72199C14.32 4.73674 14.48 4.81731 14.5943 4.9469C14.7086 5.0765 14.7684 5.24512 14.7611 5.41759C14.7539 5.59007 14.6802 5.7531 14.5554 5.87268L8.51172 11.2324C8.38917 11.3398 8.23163 11.3991 8.06852 11.3991C7.9054 11.3991 7.74786 11.3398 7.62531 11.2324Z" fill="#131045"/>
</svg>
