<svg width="25" height="25" viewBox="0 0 25 25" fill="none" xmlns="http://www.w3.org/2000/svg">
<path d="M11.0206 1.94087C6.02575 1.94087 1.95703 6.00019 1.95703 10.9835C1.95703 15.9667 6.02575 20.034 11.0206 20.034C13.154 20.034 15.1161 19.288 16.6668 18.0495L20.4421 21.8142C20.6326 21.9964 20.8871 22.0969 21.151 22.0942C21.4149 22.0915 21.6673 21.9858 21.854 21.7998C22.0408 21.6137 22.1471 21.3621 22.1501 21.0989C22.1532 20.8356 22.0528 20.5815 21.8704 20.3912L18.0951 16.6246C19.3375 15.0751 20.086 13.1144 20.086 10.9835C20.086 6.00019 16.0154 1.94087 11.0206 1.94087ZM11.0206 3.9508C14.9266 3.9508 18.0695 7.08645 18.0695 10.9835C18.0695 14.8805 14.9266 18.024 11.0206 18.024C7.1145 18.024 3.97158 14.8805 3.97158 10.9835C3.97158 7.08645 7.1145 3.9508 11.0206 3.9508Z" fill="#6C5DD3"/>
</svg>
