<svg width="24" height="24" viewBox="0 0 24 24" fill="none" xmlns="http://www.w3.org/2000/svg">
<path d="M10.9395 1.9313C5.98074 1.9313 1.94141 5.97063 1.94141 10.9294C1.94141 15.8881 5.98074 19.9353 10.9395 19.9353C13.0575 19.9353 15.0054 19.193 16.5449 17.9606L20.293 21.7067C20.4821 21.888 20.7347 21.988 20.9967 21.9854C21.2587 21.9827 21.5093 21.8775 21.6947 21.6924C21.8801 21.5073 21.9856 21.2569 21.9886 20.9949C21.9917 20.7329 21.892 20.4802 21.7109 20.2908L17.9629 16.5427C19.1963 15.0008 19.9395 13.0498 19.9395 10.9294C19.9395 5.97063 15.8982 1.9313 10.9395 1.9313ZM10.9395 3.93134C14.8173 3.93134 17.9375 7.05153 17.9375 10.9294C17.9375 14.8072 14.8173 17.9352 10.9395 17.9352C7.06162 17.9352 3.94141 14.8072 3.94141 10.9294C3.94141 7.05153 7.06162 3.93134 10.9395 3.93134Z" fill="#6C5DD3"/>
</svg>
